<?xml version="1.0" encoding="UTF-8" standalone="no"?><!DOCTYPE svg PUBLIC "-//W3C//DTD SVG 1.1//EN" "http://www.w3.org/Graphics/SVG/1.1/DTD/svg11.dtd"><svg width="100%" height="100%" viewBox="0 0 437 428" version="1.1" xmlns="http://www.w3.org/2000/svg" xmlns:xlink="http://www.w3.org/1999/xlink" xml:space="preserve" xmlns:serif="http://www.serif.com/" style="fill-rule:evenodd;clip-rule:evenodd;stroke-linecap:round;stroke-linejoin:round;stroke-miterlimit:1.5;"><g><path d="M354.324,247.375c-0.752,36.436 -13.774,69.953 -35.192,96.763c-30.529,38.216 -78.116,62.807 -131.536,62.807c-92.039,0 -166.763,-72.997 -166.763,-162.91c0,-56.094 29.084,-105.605 73.312,-134.914c26.639,-17.653 58.773,-27.977 93.354,-27.996" style="fill:none;stroke:#fff;stroke-width:41.67px;"/><path d="M222.222,22.22c7.179,-0.915 14.497,-1.387 21.925,-1.387c94.449,0 171.13,76.286 171.13,170.25c0,7.943 -0.548,15.759 -1.608,23.414" style="fill:none;stroke:#fff;stroke-width:41.67px;"/><path d="M415.278,191.083l0,23.414m-60.954,32.878l-166.824,0l0,-166.25m34.722,-60.291l21.925,0" style="fill:none;stroke:#fff;stroke-width:41.67px;"/><path d="M415.278,191.083l0,23.414l-193.056,0l0,-193.664l21.925,0" style="fill:none;stroke:#fff;stroke-width:41.67px;"/></g></svg>