<?xml version="1.0" encoding="UTF-8" standalone="no"?><!DOCTYPE svg PUBLIC "-//W3C//DTD SVG 1.1//EN" "http://www.w3.org/Graphics/SVG/1.1/DTD/svg11.dtd"><svg width="100%" height="100%" viewBox="0 0 547 555" version="1.1" xmlns="http://www.w3.org/2000/svg" xmlns:xlink="http://www.w3.org/1999/xlink" xml:space="preserve" xmlns:serif="http://www.serif.com/" style="fill-rule:evenodd;clip-rule:evenodd;stroke-linecap:round;stroke-linejoin:round;stroke-miterlimit:1.5;"><g><g><g><path d="M10.417,10.417l0,533.333" style="fill:none;stroke:#10b981;stroke-width:20.83px;"/><path d="M10.417,10.417l397.138,0" style="fill:none;stroke:#10b981;stroke-width:20.83px;"/><path d="M10.417,543.75l397.138,0" style="fill:none;stroke:#10b981;stroke-width:20.83px;"/><path d="M143.75,148.841c13.985,-4.649 29.005,-7.175 44.636,-7.175c75.122,0 136.111,58.344 136.111,130.208c0,71.864 -60.989,130.208 -136.111,130.208c-15.631,0 -30.651,-2.526 -44.636,-7.175" style="fill:none;stroke:#10b981;stroke-width:20.83px;"/><path d="M143.75,108.633c13.385,-3.11 27.372,-4.759 41.763,-4.759c96.638,0 175.096,74.37 175.096,165.972c0,91.603 -78.458,165.972 -175.096,165.972c-14.39,0 -28.378,-1.649 -41.763,-4.759" style="fill:none;stroke:#10b981;stroke-width:20.83px;"/><path d="M143.75,73.85c14.208,-3.076 28.971,-4.698 44.118,-4.698c112.396,0 203.648,89.306 203.648,199.306c0,110 -91.252,199.306 -203.648,199.306c-15.147,0 -29.91,-1.622 -44.118,-4.698" style="fill:none;stroke:#10b981;stroke-width:20.83px;"/><path d="M143.75,39.799c14.471,-2.614 29.391,-3.98 44.636,-3.98c134.146,0 243.056,105.798 243.056,236.111c0,130.313 -108.91,236.111 -243.056,236.111c-15.246,0 -30.165,-1.367 -44.636,-3.98" style="fill:none;stroke:#10b981;stroke-width:20.83px;"/><path d="M143.75,14.254c15.412,-2.523 31.254,-3.838 47.414,-3.838c154.076,0 279.167,119.489 279.167,266.667c0,147.177 -125.09,266.667 -279.167,266.667c-16.161,0 -32.002,-1.315 -47.414,-3.838" style="fill:none;stroke:#10b981;stroke-width:20.83px;"/><path d="M339.899,10.417c97.486,51.38 163.765,151.889 163.765,267.361c0,114.441 -65.101,214.185 -161.161,265.973" style="fill:none;stroke:#10b981;stroke-width:20.83px;"/><path d="M400.843,10.417c72.016,54.552 121.562,136.553 132.49,230.075m0,78.398c-10.585,90.589 -57.403,170.366 -125.778,224.86" style="fill:none;stroke:#10b981;stroke-width:20.83px;"/><path d="M533.333,318.89l0,-78.398c1.503,12.862 2.275,25.942 2.275,39.199c0,13.257 -0.772,26.337 -2.275,39.199Z" style="fill:none;stroke:#10b981;stroke-width:20.83px;"/></g></g></g></svg>