<?xml version="1.0" encoding="UTF-8" standalone="no"?><!DOCTYPE svg PUBLIC "-//W3C//DTD SVG 1.1//EN" "http://www.w3.org/Graphics/SVG/1.1/DTD/svg11.dtd"><svg width="100%" height="100%" viewBox="0 0 435 439" version="1.1" xmlns="http://www.w3.org/2000/svg" xmlns:xlink="http://www.w3.org/1999/xlink" xml:space="preserve" xmlns:serif="http://www.serif.com/" style="fill-rule:evenodd;clip-rule:evenodd;stroke-linecap:round;stroke-linejoin:round;stroke-miterlimit:1.5;"><g><path d="M219.979,0c64.58,0 117.187,52.7 117.187,117.828c0,65.128 -52.607,117.828 -117.187,117.828c-64.58,0 -117.187,-52.7 -117.187,-117.828c0,-65.128 52.607,-117.828 117.187,-117.828Zm0,41.667c-41.681,0 -75.521,34.127 -75.521,76.161c0,42.035 33.84,76.161 75.521,76.161c41.681,0 75.521,-34.127 75.521,-76.161c0,-42.035 -33.84,-76.161 -75.521,-76.161Z" style="fill:#fff;"/><path d="M20.833,417.361c8.546,-100.99 93.329,-180.403 196.514,-180.403c103.185,0 187.968,79.413 196.514,180.403" style="fill:none;stroke:#fff;stroke-width:41.67px;"/><path d="M20.833,417.361l393.027,0" style="fill:none;stroke:#fff;stroke-width:41.67px;"/></g></svg>